# xmcd
#
# Track frame offsets:
# 150
# 16478
# 32186
# 50372
# 63676
# 80961
# 94372
# 109800
# 123339
# 141651
# 156386
# 172937
#
# Disc length: 2636 seconds
#
#
# Revision: 0
# Processed by: cddbd v1.5PL3 Copyright (c) Steve Scherf et al.
# Submitted via: FreeRIP 2.60 
#
DISCID=b10a4a0c
DTITLE=The Blue Monday Band - The Blue Monday Band
DYEAR=2003
DGENRE=Blues
TTITLE0=Workin' Man Blues
TTITLE1=Twelve Bar Blues
TTITLE2=Inner You
TTITLE3=Riot In Cell Block Number Nine
TTITLE4=The Light
TTITLE5=Tobacco Road
TTITLE6=The Great Deceiver
TTITLE7=Windowpane Blues
TTITLE8=Woman In Blue
TTITLE9=We Gonna Make It
TTITLE10=Straight Up No Chaser
TTITLE11=Brother Bill (Last Clean Shirt)
EXTD=bluesfestradio.com
EXTT0=
EXTT1=
EXTT2=
EXTT3=
EXTT4=
EXTT5=
EXTT6=
EXTT7=
EXTT8=
EXTT9=
EXTT10=
EXTT11=
PLAYORDER=
